# xmcd
#
# Track frame offsets: 
#        182
#        12297
#        22147
#        34795
#        45172
#        57957
#        67247
#        77975
#        91865
#        103905
#        114162
#        126442
#        140495
#        152865
#        167555
#        179270
#
# Disc length: 2529 seconds
#
# Revision: 3
# Processed by: cddbd v1.5.2PL0 Copyright (c) Steve Scherf et al.
# Submitted via: ExactAudioCopy v1.3
#
DISCID=d609df10
DTITLE=Jim Reeves - The Intimate Jim Reeves
DYEAR=1995
DGENRE=Country
TTITLE0=Dark Moon (1960)
TTITLE1=Oh, How I Miss You Tonight (1960)
TTITLE2=Take Me In Your Arms And Hold Me (1960)
TTITLE3=I'm 'Gettin' Better (1960)
TTITLE4=Almost (1960)
TTITLE5=You're Free To Go (1960)
TTITLE6=You're The Only Good Thing (1960)
TTITLE7=Have I Stayed Away Too Long (1960)
TTITLE8=No One To Cry To (1960)
TTITLE9=I Was Just Walking Out The Door (1960)
TTITLE10=Room Full Of Roses (1960)
TTITLE11=We Could (1960)
TTITLE12=Am I Losing You (1960)
TTITLE13=That Silver-Haired Daddy Of Mine (1960)
TTITLE14=I Missed Me (1960)
TTITLE15=Scarlet Ribbons (1959)
EXTD=YEAR: 1995
EXTT0=
EXTT1=
EXTT2=
EXTT3=
EXTT4=
EXTT5=
EXTT6=
EXTT7=
EXTT8=
EXTT9=
EXTT10=
EXTT11=
EXTT12=
EXTT13=
EXTT14=
EXTT15=
PLAYORDER=
